<svg width="24" height="23" viewBox="0 0 24 23" fill="none" xmlns="http://www.w3.org/2000/svg">
<path fill-rule="evenodd" clip-rule="evenodd" d="M12 1.91669V6.62502L12 6.67943C11.9999 7.1035 11.9998 7.51563 12.0455 7.85554C12.097 8.23874 12.2226 8.67602 12.5858 9.03923C12.949 9.40245 13.3863 9.52797 13.7695 9.57949C14.1094 9.62519 14.5215 9.62511 14.9456 9.62503H14.9456L15 9.62502H20V15.3334C20 18.0439 20 19.3992 19.1213 20.2413C18.2426 21.0834 16.8284 21.0834 14 21.0834H10C7.17157 21.0834 5.75736 21.0834 4.87868 20.2413C4 19.3992 4 18.0439 4 15.3334V7.66669C4 4.95611 4 3.60082 4.87868 2.75876C5.75736 1.91669 7.17157 1.91669 10 1.91669H12ZM14 1.92112V6.62502C14 7.1247 14.0021 7.39885 14.0277 7.58905L14.0287 7.59633L14.036 7.59733C14.2262 7.6229 14.5003 7.62502 15 7.62502H19.9942C19.9828 7.25362 19.9488 7.00251 19.8478 6.76879C19.6955 6.41656 19.4065 6.13957 18.8284 5.5856L18.8284 5.5856L16.1716 3.03944C15.5935 2.48547 15.3045 2.20848 14.9369 2.06258C14.684 1.9622 14.4116 1.93088 14 1.92112ZM8 12.4584C8 11.9061 8.44772 11.4584 9 11.4584L15 11.4584C15.5523 11.4584 16 11.9061 16 12.4584C16 13.0106 15.5523 13.4584 15 13.4584L9 13.4584C8.44772 13.4584 8 13.0106 8 12.4584ZM9 15.2917C8.44772 15.2917 8 15.7394 8 16.2917C8 16.844 8.44772 17.2917 9 17.2917H13C13.5523 17.2917 14 16.844 14 16.2917C14 15.7394 13.5523 15.2917 13 15.2917H9Z" fill="#012970"/>
</svg>
