<svg width="26" height="26" viewBox="0 0 26 26" fill="none" xmlns="http://www.w3.org/2000/svg">
<path d="M23.1348 5.34398L13.3848 2.09398C13.1351 2.00969 12.8646 2.00969 12.6149 2.09398L2.86493 5.34398C2.63229 5.42103 2.42828 5.56643 2.27953 5.7612C2.13078 5.95596 2.04421 6.19105 2.03111 6.43577C2.03 6.45709 2.03 6.47844 2.03111 6.49976V14.6248C2.03111 14.948 2.15951 15.258 2.38807 15.4865C2.61663 15.7151 2.92662 15.8435 3.24986 15.8435C3.57309 15.8435 3.88308 15.7151 4.11164 15.4865C4.3402 15.258 4.46861 14.948 4.46861 14.6248V8.19077L6.87665 8.99312C6.12931 10.4236 5.90723 12.0709 6.24905 13.6482C6.59087 15.2256 7.47495 16.6331 8.74744 17.6259C7.08224 18.4471 5.67296 19.7075 4.67173 21.271C4.58157 21.405 4.51894 21.5556 4.48749 21.714C4.45604 21.8725 4.45639 22.0356 4.48852 22.1938C4.52066 22.3521 4.58394 22.5024 4.67468 22.6361C4.76542 22.7697 4.88182 22.8839 5.0171 22.9722C5.15238 23.0604 5.30386 23.1209 5.46271 23.15C5.62157 23.1792 5.78464 23.1765 5.94246 23.1421C6.10027 23.1077 6.24967 23.0423 6.38197 22.9497C6.51428 22.857 6.62685 22.739 6.71314 22.6025C8.16243 20.3722 10.4608 19.0935 12.9999 19.0935C15.5389 19.0935 17.8373 20.3722 19.2917 22.6025C19.3779 22.739 19.4905 22.857 19.6228 22.9497C19.7551 23.0423 19.9045 23.1077 20.0623 23.1421C20.2201 23.1765 20.3832 23.1792 20.5421 23.15C20.7009 23.1209 20.8524 23.0604 20.9877 22.9722C21.123 22.8839 21.2394 22.7697 21.3301 22.6361C21.4209 22.5024 21.4841 22.3521 21.5163 22.1938C21.5484 22.0356 21.5488 21.8725 21.5173 21.714C21.4859 21.5556 21.4232 21.405 21.3331 21.271C20.3309 19.7056 18.9197 18.4441 17.2523 17.6229C18.5248 16.6301 19.4088 15.2225 19.7507 13.6452C20.0925 12.0678 19.8704 10.4206 19.1231 8.99007L23.1348 7.65249C23.3771 7.57141 23.5879 7.41619 23.7372 7.20878C23.8865 7.00137 23.9669 6.75228 23.9669 6.49671C23.9669 6.24115 23.8865 5.99205 23.7372 5.78464C23.5879 5.57723 23.3771 5.42201 23.1348 5.34093V5.34398ZM12.9999 4.53148L18.8956 6.49976L12.9999 8.46499L7.10923 6.49976L12.9999 4.53148ZM17.4686 12.1873C17.4687 12.8814 17.3072 13.566 16.9967 14.1868C16.6863 14.8076 16.2355 15.3476 15.6801 15.7639C15.1247 16.1802 14.4799 16.4614 13.7969 16.5852C13.1139 16.709 12.4115 16.672 11.7453 16.4771C11.0791 16.2823 10.4675 15.9349 9.95886 15.4626C9.45026 14.9902 9.05867 14.4059 8.81515 13.7559C8.57163 13.1059 8.48288 12.4081 8.55592 11.7179C8.62896 11.0276 8.86179 10.3638 9.23595 9.77921L12.6149 10.9055C12.8647 10.9895 13.135 10.9895 13.3848 10.9055L16.7638 9.77921C17.2246 10.4978 17.4693 11.3336 17.4686 12.1873Z" fill="#012970"/>
</svg>
