<svg width="24" height="23" viewBox="0 0 24 23" fill="none" xmlns="http://www.w3.org/2000/svg">
<path fill-rule="evenodd" clip-rule="evenodd" d="M12 1.91663V6.62496L12 6.67937C11.9999 7.10344 11.9998 7.51556 12.0455 7.85548C12.097 8.23868 12.2226 8.67596 12.5858 9.03917C12.949 9.40239 13.3863 9.52791 13.7695 9.57943C14.1094 9.62513 14.5215 9.62505 14.9456 9.62497H14.9456L15 9.62496H20V15.3333C20 18.0439 20 19.3992 19.1213 20.2412C18.2426 21.0833 16.8284 21.0833 14 21.0833H10C7.17157 21.0833 5.75736 21.0833 4.87868 20.2412C4 19.3992 4 18.0439 4 15.3333V7.66663C4 4.95605 4 3.60076 4.87868 2.75869C5.75736 1.91663 7.17157 1.91663 10 1.91663H12ZM14 1.92105V6.62496C14 7.12463 14.0021 7.39879 14.0277 7.58898L14.0287 7.59627L14.036 7.59726C14.2262 7.62284 14.5003 7.62496 15 7.62496H19.9942C19.9828 7.25356 19.9488 7.00245 19.8478 6.76873C19.6955 6.4165 19.4065 6.13951 18.8284 5.58554L18.8284 5.58554L16.1716 3.03938C15.5935 2.48541 15.3045 2.20842 14.9369 2.06252C14.684 1.96214 14.4116 1.93082 14 1.92105ZM8 12.4583C8 11.906 8.44772 11.4583 9 11.4583L15 11.4583C15.5523 11.4583 16 11.906 16 12.4583C16 13.0106 15.5523 13.4583 15 13.4583L9 13.4583C8.44772 13.4583 8 13.0106 8 12.4583ZM9 15.2916C8.44772 15.2916 8 15.7393 8 16.2916C8 16.8439 8.44772 17.2916 9 17.2916H13C13.5523 17.2916 14 16.8439 14 16.2916C14 15.7393 13.5523 15.2916 13 15.2916H9Z" fill="#012970"/>
</svg>
