<svg width="26" height="26" viewBox="0 0 26 26" fill="none" xmlns="http://www.w3.org/2000/svg">
<path d="M7.25833 23.075C7.05972 22.8764 6.96041 22.6236 6.96041 22.3167C6.96041 22.0097 7.05972 21.7569 7.25833 21.5583L12.4312 16.3583C12.8465 15.9431 13.3611 15.7354 13.975 15.7354C14.5889 15.7354 15.1035 15.9431 15.5187 16.3583L17.7667 18.6062L22.6146 13.7583C22.8312 13.5417 23.084 13.4333 23.3729 13.4333C23.6618 13.4333 23.9146 13.5417 24.1312 13.7583C24.3479 13.975 24.4562 14.2321 24.4562 14.5297C24.4562 14.8279 24.3479 15.0854 24.1312 15.3021L19.3104 20.15C18.8951 20.5653 18.3852 20.7729 17.7807 20.7729C17.1755 20.7729 16.6653 20.5653 16.25 20.15L13.975 17.875L8.775 23.075C8.57639 23.2736 8.32794 23.3773 8.02966 23.3859C7.73211 23.3953 7.475 23.2917 7.25833 23.075ZM4.33333 22.75C3.7375 22.75 3.22761 22.538 2.80366 22.1141C2.379 21.6894 2.16666 21.1792 2.16666 20.5833V5.41667C2.16666 4.82083 2.379 4.31058 2.80366 3.88592C3.22761 3.46197 3.7375 3.25 4.33333 3.25H19.5C20.0958 3.25 20.6061 3.46197 21.0307 3.88592C21.4547 4.31058 21.6667 4.82083 21.6667 5.41667V9.75C21.6667 10.0569 21.5627 10.3141 21.3547 10.5213C21.1474 10.7293 20.8903 10.8333 20.5833 10.8333H4.33333V20.5833V22.75ZM4.33333 8.66667H19.5V5.41667H4.33333V8.66667Z" fill="#012970"/>
</svg>
