<svg width="26" height="26" viewBox="0 0 26 26" fill="none" xmlns="http://www.w3.org/2000/svg">
<path d="M7.25866 23.075C7.06005 22.8764 6.96074 22.6236 6.96074 22.3167C6.96074 22.0097 7.06005 21.7569 7.25866 21.5583L12.4316 16.3583C12.8469 15.9431 13.3614 15.7354 13.9753 15.7354C14.5892 15.7354 15.1038 15.9431 15.5191 16.3583L17.767 18.6062L22.6149 13.7583C22.8316 13.5417 23.0844 13.4333 23.3732 13.4333C23.6621 13.4333 23.9149 13.5417 24.1316 13.7583C24.3482 13.975 24.4566 14.2321 24.4566 14.5297C24.4566 14.8279 24.3482 15.0854 24.1316 15.3021L19.3107 20.15C18.8955 20.5653 18.3856 20.7729 17.7811 20.7729C17.1759 20.7729 16.6656 20.5653 16.2503 20.15L13.9753 17.875L8.77533 23.075C8.57671 23.2736 8.32827 23.3773 8.02999 23.3859C7.73244 23.3953 7.47533 23.2917 7.25866 23.075ZM4.33366 22.75C3.73783 22.75 3.22794 22.538 2.80399 22.1141C2.37933 21.6894 2.16699 21.1792 2.16699 20.5833V5.41667C2.16699 4.82083 2.37933 4.31058 2.80399 3.88592C3.22794 3.46197 3.73783 3.25 4.33366 3.25H19.5003C20.0962 3.25 20.6064 3.46197 21.0311 3.88592C21.455 4.31058 21.667 4.82083 21.667 5.41667V9.75C21.667 10.0569 21.563 10.3141 21.355 10.5213C21.1477 10.7293 20.8906 10.8333 20.5837 10.8333H4.33366V20.5833V22.75ZM4.33366 8.66667H19.5003V5.41667H4.33366V8.66667Z" fill="#012970"/>
</svg>
