<svg width="26" height="26" viewBox="0 0 26 26" fill="none" xmlns="http://www.w3.org/2000/svg">
<path d="M7.25817 23.075C7.05956 22.8764 6.96025 22.6236 6.96025 22.3167C6.96025 22.0097 7.05956 21.7569 7.25817 21.5583L12.4311 16.3583C12.8464 15.9431 13.3609 15.7354 13.9748 15.7354C14.5887 15.7354 15.1033 15.9431 15.5186 16.3583L17.7665 18.6062L22.6144 13.7583C22.8311 13.5417 23.0839 13.4333 23.3728 13.4333C23.6616 13.4333 23.9144 13.5417 24.1311 13.7583C24.3478 13.975 24.4561 14.2321 24.4561 14.5297C24.4561 14.8279 24.3478 15.0854 24.1311 15.3021L19.3103 20.15C18.895 20.5653 18.3851 20.7729 17.7806 20.7729C17.1754 20.7729 16.6651 20.5653 16.2498 20.15L13.9748 17.875L8.77484 23.075C8.57623 23.2736 8.32778 23.3773 8.0295 23.3859C7.73195 23.3953 7.47484 23.2917 7.25817 23.075ZM4.33317 22.75C3.73734 22.75 3.22745 22.538 2.8035 22.1141C2.37884 21.6894 2.1665 21.1792 2.1665 20.5833V5.41667C2.1665 4.82083 2.37884 4.31058 2.8035 3.88592C3.22745 3.46197 3.73734 3.25 4.33317 3.25H19.4998C20.0957 3.25 20.6059 3.46197 21.0306 3.88592C21.4545 4.31058 21.6665 4.82083 21.6665 5.41667V9.75C21.6665 10.0569 21.5625 10.3141 21.3545 10.5213C21.1472 10.7293 20.8901 10.8333 20.5832 10.8333H4.33317V20.5833V22.75ZM4.33317 8.66667H19.4998V5.41667H4.33317V8.66667Z" fill="#012970"/>
</svg>
