<svg width="26" height="26" viewBox="0 0 26 26" fill="none" xmlns="http://www.w3.org/2000/svg">
<path d="M23.135 5.34447L13.385 2.09447C13.1353 2.01018 12.8649 2.01018 12.6152 2.09447L2.86518 5.34447C2.63253 5.42152 2.42852 5.56692 2.27977 5.76168C2.13103 5.95645 2.04445 6.19154 2.03135 6.43626C2.03024 6.45758 2.03024 6.47893 2.03135 6.50025V14.6252C2.03135 14.9485 2.15975 15.2585 2.38831 15.487C2.61687 15.7156 2.92687 15.844 3.2501 15.844C3.57333 15.844 3.88333 15.7156 4.11189 15.487C4.34045 15.2585 4.46885 14.9485 4.46885 14.6252V8.19126L6.8769 8.99361C6.12956 10.4241 5.90747 12.0714 6.24929 13.6487C6.59111 15.2261 7.4752 16.6336 8.74768 17.6264C7.08249 18.4476 5.67321 19.7079 4.67198 21.2715C4.58181 21.4055 4.51918 21.5561 4.48773 21.7145C4.45628 21.8729 4.45663 22.036 4.48877 22.1943C4.5209 22.3526 4.58418 22.5029 4.67492 22.6365C4.76566 22.7702 4.88206 22.8844 5.01734 22.9727C5.15263 23.0609 5.3041 23.1214 5.46296 23.1505C5.62182 23.1797 5.78489 23.177 5.9427 23.1426C6.10051 23.1082 6.24991 23.0428 6.38222 22.9502C6.51452 22.8575 6.62709 22.7395 6.71338 22.603C8.16268 20.3727 10.461 19.094 13.0001 19.094C15.5392 19.094 17.8375 20.3727 19.2919 22.603C19.3782 22.7395 19.4908 22.8575 19.6231 22.9502C19.7554 23.0428 19.9048 23.1082 20.0626 23.1426C20.2204 23.177 20.3835 23.1797 20.5423 23.1505C20.7012 23.1214 20.8527 23.0609 20.9879 22.9727C21.1232 22.8844 21.2396 22.7702 21.3304 22.6365C21.4211 22.5029 21.4844 22.3526 21.5165 22.1943C21.5486 22.036 21.549 21.8729 21.5175 21.7145C21.4861 21.5561 21.4235 21.4055 21.3333 21.2715C20.3311 19.7061 18.92 18.4446 17.2525 17.6234C18.525 16.6306 19.4091 15.223 19.7509 13.6457C20.0927 12.0683 19.8706 10.4211 19.1233 8.99056L23.135 7.65298C23.3774 7.5719 23.5881 7.41668 23.7374 7.20927C23.8868 7.00186 23.9671 6.75276 23.9671 6.4972C23.9671 6.24164 23.8868 5.99254 23.7374 5.78513C23.5881 5.57772 23.3774 5.4225 23.135 5.34142V5.34447ZM13.0001 4.53197L18.8958 6.50025L13.0001 8.46548L7.10948 6.50025L13.0001 4.53197ZM17.4689 12.1877C17.469 12.8819 17.3074 13.5665 16.997 14.1873C16.6865 14.8081 16.2357 15.3481 15.6803 15.7644C15.1249 16.1807 14.4802 16.4619 13.7972 16.5857C13.1142 16.7095 12.4118 16.6725 11.7456 16.4776C11.0794 16.2828 10.4677 15.9354 9.95911 15.463C9.4505 14.9907 9.05892 14.4064 8.8154 13.7564C8.57188 13.1064 8.48312 12.4086 8.55616 11.7183C8.6292 11.0281 8.86203 10.3643 9.2362 9.7797L12.6152 10.906C12.8649 10.99 13.1353 10.99 13.385 10.906L16.764 9.7797C17.2249 10.4982 17.4695 11.3341 17.4689 12.1877Z" fill="#012970"/>
</svg>
