<svg width="24" height="25" viewBox="0 0 24 25" fill="none" xmlns="http://www.w3.org/2000/svg">
<path d="M11 4.39062H4C3.46957 4.39063 2.96086 4.60134 2.58579 4.97641C2.21071 5.35148 2 5.86019 2 6.39062V20.3906C2 20.9211 2.21071 21.4298 2.58579 21.8048C2.96086 22.1799 3.46957 22.3906 4 22.3906H18C18.5304 22.3906 19.0391 22.1799 19.4142 21.8048C19.7893 21.4298 20 20.9211 20 20.3906V13.3906" stroke="#7D7D7D" stroke-width="2" stroke-linecap="round" stroke-linejoin="round"/>
<path d="M18.5 2.89061C18.8978 2.49278 19.4374 2.26929 20 2.26929C20.5626 2.26929 21.1022 2.49278 21.5 2.89061C21.8978 3.28843 22.1213 3.828 22.1213 4.39061C22.1213 4.95322 21.8978 5.49278 21.5 5.89061L12 15.3906L8 16.3906L9 12.3906L18.5 2.89061Z" stroke="#7D7D7D" stroke-width="2" stroke-linecap="round" stroke-linejoin="round"/>
</svg>
