<svg width="24" height="23" viewBox="0 0 24 23" fill="none" xmlns="http://www.w3.org/2000/svg">
<path fill-rule="evenodd" clip-rule="evenodd" d="M12 1.91675V6.62508L12 6.67949C11.9999 7.10356 11.9998 7.51569 12.0455 7.8556C12.097 8.2388 12.2226 8.67608 12.5858 9.03929C12.949 9.40251 13.3863 9.52803 13.7695 9.57955C14.1094 9.62525 14.5215 9.62517 14.9456 9.62509H14.9456L15 9.62508H20V15.3334C20 18.044 20 19.3993 19.1213 20.2413C18.2426 21.0834 16.8284 21.0834 14 21.0834H10C7.17157 21.0834 5.75736 21.0834 4.87868 20.2413C4 19.3993 4 18.044 4 15.3334V7.66675C4 4.95617 4 3.60088 4.87868 2.75882C5.75736 1.91675 7.17157 1.91675 10 1.91675H12ZM14 1.92118V6.62508C14 7.12476 14.0021 7.39891 14.0277 7.58911L14.0287 7.59639L14.036 7.59739C14.2262 7.62296 14.5003 7.62508 15 7.62508H19.9942C19.9828 7.25368 19.9488 7.00257 19.8478 6.76885C19.6955 6.41662 19.4065 6.13964 18.8284 5.58566L18.8284 5.58566L16.1716 3.03951C15.5935 2.48553 15.3045 2.20854 14.9369 2.06265C14.684 1.96226 14.4116 1.93094 14 1.92118ZM8 12.4584C8 11.9061 8.44772 11.4584 9 11.4584L15 11.4584C15.5523 11.4584 16 11.9061 16 12.4584C16 13.0107 15.5523 13.4584 15 13.4584L9 13.4584C8.44772 13.4584 8 13.0107 8 12.4584ZM9 15.2917C8.44772 15.2917 8 15.7395 8 16.2917C8 16.844 8.44772 17.2917 9 17.2917H13C13.5523 17.2917 14 16.844 14 16.2917C14 15.7395 13.5523 15.2917 13 15.2917H9Z" fill="#012970"/>
</svg>
