<svg width="26" height="26" viewBox="0 0 26 26" fill="none" xmlns="http://www.w3.org/2000/svg">
<path d="M23.1348 5.34422L13.3848 2.09422C13.1351 2.00993 12.8646 2.00993 12.6149 2.09422L2.86493 5.34422C2.63229 5.42127 2.42828 5.56667 2.27953 5.76144C2.13078 5.95621 2.04421 6.1913 2.03111 6.43602C2.03 6.45733 2.03 6.47869 2.03111 6.5V14.625C2.03111 14.9482 2.15951 15.2582 2.38807 15.4868C2.61663 15.7153 2.92662 15.8438 3.24986 15.8438C3.57309 15.8438 3.88308 15.7153 4.11164 15.4868C4.3402 15.2582 4.46861 14.9482 4.46861 14.625V8.19102L6.87665 8.99336C6.12931 10.4239 5.90723 12.0711 6.24905 13.6485C6.59087 15.2258 7.47495 16.6334 8.74744 17.6262C7.08224 18.4473 5.67296 19.7077 4.67173 21.2713C4.58157 21.4053 4.51894 21.5559 4.48749 21.7143C4.45604 21.8727 4.45639 22.0358 4.48852 22.1941C4.52066 22.3524 4.58394 22.5027 4.67468 22.6363C4.76542 22.7699 4.88182 22.8842 5.0171 22.9724C5.15238 23.0606 5.30386 23.1211 5.46271 23.1503C5.62157 23.1795 5.78464 23.1768 5.94246 23.1424C6.10027 23.108 6.24967 23.0426 6.38197 22.9499C6.51428 22.8573 6.62685 22.7393 6.71314 22.6027C8.16243 20.3724 10.4608 19.0938 12.9999 19.0938C15.5389 19.0938 17.8373 20.3724 19.2917 22.6027C19.3779 22.7393 19.4905 22.8573 19.6228 22.9499C19.7551 23.0426 19.9045 23.108 20.0623 23.1424C20.2201 23.1768 20.3832 23.1795 20.5421 23.1503C20.7009 23.1211 20.8524 23.0606 20.9877 22.9724C21.123 22.8842 21.2394 22.7699 21.3301 22.6363C21.4209 22.5027 21.4841 22.3524 21.5163 22.1941C21.5484 22.0358 21.5488 21.8727 21.5173 21.7143C21.4859 21.5559 21.4232 21.4053 21.3331 21.2713C20.3309 19.7059 18.9197 18.4443 17.2523 17.6231C18.5248 16.6303 19.4088 15.2228 19.7507 13.6454C20.0925 12.0681 19.8704 10.4208 19.1231 8.99031L23.1348 7.65274C23.3771 7.57165 23.5879 7.41643 23.7372 7.20902C23.8865 7.00162 23.9669 6.75252 23.9669 6.49696C23.9669 6.24139 23.8865 5.99229 23.7372 5.78489C23.5879 5.57748 23.3771 5.42226 23.1348 5.34117V5.34422ZM12.9999 4.53172L18.8956 6.5L12.9999 8.46524L7.10923 6.5L12.9999 4.53172ZM17.4686 12.1875C17.4687 12.8816 17.3072 13.5662 16.9967 14.187C16.6863 14.8078 16.2355 15.3478 15.6801 15.7641C15.1247 16.1804 14.4799 16.4616 13.7969 16.5854C13.1139 16.7092 12.4115 16.6722 11.7453 16.4774C11.0791 16.2825 10.4675 15.9351 9.95886 15.4628C9.45026 14.9905 9.05867 14.4061 8.81515 13.7561C8.57163 13.1061 8.48288 12.4084 8.55592 11.7181C8.62896 11.0278 8.86179 10.3641 9.23595 9.77946L12.6149 10.9058C12.8647 10.9898 13.135 10.9898 13.3848 10.9058L16.7638 9.77946C17.2246 10.498 17.4693 11.3339 17.4686 12.1875Z" fill="#012970"/>
</svg>
