<svg width="25" height="25" viewBox="0 0 25 25" fill="none" xmlns="http://www.w3.org/2000/svg">
<path d="M11.2 4.39062H4.19995C3.66952 4.39063 3.16081 4.60134 2.78574 4.97641C2.41066 5.35148 2.19995 5.86019 2.19995 6.39062V20.3906C2.19995 20.9211 2.41066 21.4298 2.78574 21.8048C3.16081 22.1799 3.66952 22.3906 4.19995 22.3906H18.2C18.7304 22.3906 19.2391 22.1799 19.6142 21.8048C19.9892 21.4298 20.2 20.9211 20.2 20.3906V13.3906" stroke="#7D7D7D" stroke-width="2" stroke-linecap="round" stroke-linejoin="round"/>
<path d="M18.7 2.89061C19.0978 2.49278 19.6373 2.26929 20.2 2.26929C20.7626 2.26929 21.3021 2.49278 21.7 2.89061C22.0978 3.28843 22.3213 3.828 22.3213 4.39061C22.3213 4.95322 22.0978 5.49278 21.7 5.89061L12.2 15.3906L8.19995 16.3906L9.19995 12.3906L18.7 2.89061Z" stroke="#7D7D7D" stroke-width="2" stroke-linecap="round" stroke-linejoin="round"/>
</svg>
