<svg width="25" height="25" viewBox="0 0 25 25" fill="none" xmlns="http://www.w3.org/2000/svg">
<path d="M3.19995 6.39062H5.19995H21.2" stroke="#FF4861" stroke-width="2" stroke-linecap="round" stroke-linejoin="round"/>
<path d="M19.2 6.39062V20.3906C19.2 20.9211 18.9892 21.4298 18.6142 21.8048C18.2391 22.1799 17.7304 22.3906 17.2 22.3906H7.19995C6.66952 22.3906 6.16081 22.1799 5.78574 21.8048C5.41066 21.4298 5.19995 20.9211 5.19995 20.3906V6.39062M8.19995 6.39062V4.39062C8.19995 3.86019 8.41067 3.35148 8.78574 2.97641C9.16081 2.60134 9.66952 2.39063 10.2 2.39062H14.2C14.7304 2.39063 15.2391 2.60134 15.6142 2.97641C15.9892 3.35148 16.2 3.86019 16.2 4.39062V6.39062" stroke="#FF4861" stroke-width="2" stroke-linecap="round" stroke-linejoin="round"/>
<path d="M10.2 11.3906V17.3906" stroke="#FF4861" stroke-width="2" stroke-linecap="round" stroke-linejoin="round"/>
<path d="M14.2 11.3906V17.3906" stroke="#FF4861" stroke-width="2" stroke-linecap="round" stroke-linejoin="round"/>
</svg>
