<svg width="25" height="25" viewBox="0 0 25 25" fill="none" xmlns="http://www.w3.org/2000/svg">
<path d="M11.5 4.79688H4.5C3.96957 4.79688 3.46086 5.00759 3.08579 5.38266C2.71071 5.75773 2.5 6.26644 2.5 6.79688V20.7969C2.5 21.3273 2.71071 21.836 3.08579 22.2111C3.46086 22.5862 3.96957 22.7969 4.5 22.7969H18.5C19.0304 22.7969 19.5391 22.5862 19.9142 22.2111C20.2893 21.836 20.5 21.3273 20.5 20.7969V13.7969" stroke="#7D7D7D" stroke-width="2" stroke-linecap="round" stroke-linejoin="round"/>
<path d="M19 3.2971C19.3978 2.89928 19.9374 2.67578 20.5 2.67578C21.0626 2.67578 21.6022 2.89928 22 3.2971C22.3978 3.69493 22.6213 4.23449 22.6213 4.7971C22.6213 5.35971 22.3978 5.89928 22 6.2971L12.5 15.7971L8.5 16.7971L9.5 12.7971L19 3.2971Z" stroke="#7D7D7D" stroke-width="2" stroke-linecap="round" stroke-linejoin="round"/>
</svg>
