<svg width="24" height="23" viewBox="0 0 24 23" fill="none" xmlns="http://www.w3.org/2000/svg">
<path fill-rule="evenodd" clip-rule="evenodd" d="M12 1.91699V6.62533L12 6.67973C11.9999 7.1038 11.9998 7.51593 12.0455 7.85584C12.097 8.23905 12.2226 8.67632 12.5858 9.03954C12.949 9.40275 13.3863 9.52828 13.7695 9.5798C14.1094 9.6255 14.5215 9.62542 14.9456 9.62533H14.9456L15 9.62532H20V15.3337C20 18.0442 20 19.3995 19.1213 20.2416C18.2426 21.0837 16.8284 21.0837 14 21.0837H10C7.17157 21.0837 5.75736 21.0837 4.87868 20.2416C4 19.3995 4 18.0442 4 15.3337V7.66699C4 4.95642 4 3.60113 4.87868 2.75906C5.75736 1.91699 7.17157 1.91699 10 1.91699H12ZM14 1.92142V6.62533C14 7.125 14.0021 7.39916 14.0277 7.58935L14.0287 7.59663L14.036 7.59763C14.2262 7.6232 14.5003 7.62533 15 7.62533H19.9942C19.9828 7.25392 19.9488 7.00281 19.8478 6.76909C19.6955 6.41687 19.4065 6.13988 18.8284 5.58591L18.8284 5.5859L16.1716 3.03975C15.5935 2.48577 15.3045 2.20879 14.9369 2.06289C14.684 1.9625 14.4116 1.93119 14 1.92142ZM8 12.4587C8 11.9064 8.44772 11.4587 9 11.4587L15 11.4587C15.5523 11.4587 16 11.9064 16 12.4587C16 13.0109 15.5523 13.4587 15 13.4587L9 13.4587C8.44772 13.4587 8 13.0109 8 12.4587ZM9 15.292C8.44772 15.292 8 15.7397 8 16.292C8 16.8443 8.44772 17.292 9 17.292H13C13.5523 17.292 14 16.8443 14 16.292C14 15.7397 13.5523 15.292 13 15.292H9Z" fill="#012970"/>
</svg>
